<svg id="Capa_1" enable-background="new 0 0 512 512" height="512" viewBox="0 0 512 512" width="512" xmlns="http://www.w3.org/2000/svg"><g><g><path d="m44.96 252.329h78.585v35.009c0 4.142 3.357 7.5 7.5 7.5s7.5-3.358 7.5-7.5v-42.509-63.417c0-4.142-3.357-7.5-7.5-7.5h-71.824c-3.508 0-6.548 2.432-7.317 5.854l-14.261 63.417c-.5 2.223.038 4.552 1.461 6.331s3.578 2.815 5.856 2.815zm20.262-63.417h58.323v48.417h-69.211z"/><path d="m128.649 357.242c-4.02.97-6.5 5.03-5.52 9.05.28 1.15.42 2.34.42 3.54-.021 8.26-6.75 14.99-15 15-8.26-.01-14.99-6.74-15.01-15 .02-8.25 6.75-14.98 15.01-14.99 4.13 0 7.49-3.37 7.49-7.5 0-4.14-3.36-7.5-7.49-7.5-16.584 0-29.99 13.393-30.01 29.99.02 16.596 13.412 30 30.01 30 16.545 0 29.99-13.371 29.99-30 0-2.39-.28-4.76-.83-7.06-.984-4.059-5.042-6.5-9.06-5.53z"/><path d="m385.37 357.032c-.591 0-1.181.07-1.771.21-4.02.97-6.49 5.03-5.52 9.05.27 1.16.42 2.35.42 3.55-.021 8.25-6.75 14.98-15 15-8.261-.02-14.99-6.75-15-15 .01-8.26 6.739-14.99 15-15.01 4.13 0 7.5-3.36 7.5-7.49 0-4.14-3.37-7.5-7.5-7.5-8.021 0-15.55 3.12-21.221 8.78-5.659 5.67-8.779 13.2-8.779 21.22 0 8.01 3.12 15.54 8.779 21.21 5.671 5.66 13.2 8.78 21.221 8.78 8.01 0 15.54-3.12 21.21-8.78 5.66-5.67 8.779-13.2 8.779-21.21 0-2.4-.279-4.78-.829-7.07-.819-3.38-3.819-5.74-7.289-5.74z"/><path d="m504.5 222.92h-32.5v-26.918h12.499c4.143 0 7.5-3.358 7.5-7.5s-3.357-7.5-7.5-7.5h-12.499v-26.918h22.499c4.143 0 7.5-3.358 7.5-7.5s-3.357-7.5-7.5-7.5h-22.499v-26.917h32.5c4.143 0 7.5-3.358 7.5-7.5s-3.357-7.5-7.5-7.5h-33.805c-1.104-3.125-2.878-5.997-5.285-8.405-4.25-4.25-9.9-6.59-15.91-6.6h-273.45c-6.021.01-11.67 2.35-15.91 6.6-4.25 4.24-6.59 9.89-6.6 15.9v39.25h-92.53c-17.666 0-32.711 12.038-36.586 29.272l-11.354 50.486c-3.032 13.488-4.57 27.335-4.57 41.158v69.012c-5.021 2.428-8.5 7.557-8.5 13.498v15c0 8.271 6.729 15 15 15h34.03c3.705 29.555 28.972 52.5 59.515 52.5s55.81-22.945 59.515-52.5h135.922c3.705 29.555 28.972 52.5 59.515 52.5 30.576 0 55.865-22.995 59.527-52.596 11.46-1.028 20.474-10.681 20.474-22.404v-60.005h6.003c6.01 0 11.66-2.34 15.91-6.58 2.407-2.413 4.18-5.287 5.285-8.415h23.804c4.143 0 7.5-3.358 7.5-7.5s-3.357-7.5-7.5-7.5h-22.5v-26.918h32.5c4.143 0 7.5-3.358 7.5-7.5s-3.357-7.5-7.5-7.5zm-476.795 4.041 11.354-50.487c2.325-10.341 11.352-17.563 21.951-17.563h92.53v128.431c0 .032.004.064.005.096v42.777c-11.003-12.481-27.092-20.377-45-20.377-18.216 0-35.416 8.346-46.781 22.5h-38.264v-67.509c0-12.718 1.415-25.458 4.205-37.868zm-12.705 120.377h37.931c-1.952 4.8-3.263 9.834-3.911 15h-34.02zm93.545 67.5c-24.813 0-45-20.187-45-45 0-24.999 20.46-45 45-45 24.813 0 45 20.187 45 45s-20.187 45-45 45zm254.951 0c-24.813 0-45-20.187-45-45s20.187-45 45-45 45 20.187 45 45-20.186 45-45 45zm86.004-134.996h-258.45c-4.14 0-7.51 3.36-7.51 7.5 0 4.13 3.37 7.49 7.5 7.49h237.457v60.005c0 3.45-2.344 6.355-5.521 7.227-3.826-29.423-29.031-52.227-59.479-52.227-30.542 0-55.81 22.945-59.515 52.5h-135.437v-75h-.005v-182.675c.01-4.12 3.38-7.49 7.51-7.5h273.45c4.121.01 7.474 3.366 7.499 7.474 0 .01-.001.02-.001.031 0 .02.003.038.003.058v41.801c0 .02-.003.039-.003.058s.003.038.003.058v41.802c0 .02-.003.039-.003.058s.003.038.003.058v41.802c0 .02-.003.039-.003.058s.003.038.003.058v41.801c0 .02-.003.039-.003.058 0 .009.001.017.001.026-.028 4.116-3.379 7.47-7.499 7.479z"/><path d="m250.502 158.506h-22.997c-4.141 0-7.498 3.356-7.498 7.498v44.995c0 4.143 3.357 7.5 7.498 7.5s7.499-3.356 7.499-7.5v-14.998h9.499c4.142 0 7.498-3.356 7.498-7.5 0-4.142-3.356-7.499-7.498-7.499h-9.499v-7.5h15.498c4.142 0 7.498-3.356 7.498-7.5 0-4.14-3.356-7.496-7.498-7.496z"/><path d="m312 181.004c0-12.404-10.036-22.497-22.371-22.497h-14.625c-4.141 0-7.498 3.356-7.498 7.498v44.995c0 4.143 3.357 7.5 7.498 7.5s7.499-3.356 7.499-7.5v-7.498h4l12.672 12.779c1.466 1.479 3.396 2.219 5.325 2.219 1.909 0 3.817-.725 5.281-2.174 2.939-2.916 2.959-7.665.045-10.605l-6.72-6.775c5.399-4.113 8.894-10.624 8.894-17.942zm-22.371 7.497h-7.126v-14.998h7.126c4.064 0 7.372 3.364 7.372 7.5 0 4.135-3.308 7.498-7.372 7.498z"/><path d="m354.495 173.503c4.142 0 7.498-3.356 7.498-7.5 0-4.142-3.356-7.498-7.498-7.498h-22.997c-4.141 0-7.498 3.356-7.498 7.498v44.995c0 4.143 3.357 7.5 7.498 7.5h22.997c4.142 0 7.498-3.356 7.498-7.5 0-4.142-3.356-7.499-7.498-7.499h-15.498v-7.499h9.499c4.142 0 7.498-3.356 7.498-7.5 0-4.142-3.356-7.499-7.498-7.499h-9.499v-7.5h15.498z"/><path d="m401.502 173.503c4.142 0 7.498-3.356 7.498-7.5 0-4.142-3.356-7.498-7.498-7.498h-22.997c-4.141 0-7.498 3.356-7.498 7.498v44.995c0 4.143 3.357 7.5 7.498 7.5h22.997c4.142 0 7.498-3.356 7.498-7.5 0-4.142-3.356-7.499-7.498-7.499h-15.498v-7.499h9.499c4.142 0 7.498-3.356 7.498-7.5 0-4.142-3.356-7.499-7.498-7.499h-9.499v-7.5h15.498z"/></g></g></svg>